<svg xmlns="http://www.w3.org/2000/svg" width="16.977" height="19.187" viewBox="0 0 16.977 19.187"><defs><style>.a{fill:#fff;stroke:#000;}</style></defs><path class="a" d="M3.578,11.282a.627.627,0,0,0,.294.51L7.694,14a.624.624,0,0,0,.588,0L12.1,11.793a.627.627,0,0,0,.295-.51V6.86a.627.627,0,0,0-.295-.51L8.282,4.139a.625.625,0,0,0-.588,0L3.872,6.35a.627.627,0,0,0-.294.51ZM0,13.076V5.066a1.136,1.136,0,0,1,.533-.925l6.923-4a1.131,1.131,0,0,1,1.066,0l6.923,4a1.135,1.135,0,0,1,.533.925v8.009a1.136,1.136,0,0,1-.533.925l-6.923,4a1.131,1.131,0,0,1-1.066,0L.533,14A1.135,1.135,0,0,1,0,13.076" transform="translate(16.477 18.664) rotate(180)"/></svg>